<svg width="47" height="25" viewBox="0 0 47 47" fill="none" xmlns="http://www.w3.org/2000/svg">
<path d="M44.987 6.24111L6.48901 44.7391C6.12435 45.1038 5.55791 45.2368 4.91429 45.1089C4.27067 44.981 3.6026 44.6026 3.05704 44.057C2.51148 43.5115 2.13312 42.8434 2.0052 42.1998C1.87728 41.5562 2.01028 40.9897 2.37493 40.6251L40.873 2.12704C41.2376 1.76238 41.8041 1.62938 42.4477 1.7573C43.0913 1.88522 43.7594 2.26358 44.3049 2.80914C44.8505 3.3547 45.2289 4.02278 45.3568 4.6664C45.4847 5.31002 45.3517 5.87646 44.987 6.24111Z" fill="white"/>
<path d="M40.7589 44.987L2.26085 6.48901C1.8962 6.12435 1.7632 5.55791 1.89112 4.91429C2.01904 4.27067 2.3974 3.6026 2.94296 3.05704C3.48852 2.51148 4.1566 2.13312 4.80021 2.0052C5.44383 1.87728 6.01028 2.01028 6.37493 2.37493L44.873 40.873C45.2376 41.2376 45.3706 41.8041 45.2427 42.4477C45.1148 43.0913 44.7364 43.7594 44.1909 44.3049C43.6453 44.8505 42.9772 45.2289 42.3336 45.3568C41.69 45.4847 41.1235 45.3517 40.7589 44.987Z" fill="white"/>
</svg>
