<svg width="59" height="25" viewBox="0 0 59 42" fill="none" xmlns="http://www.w3.org/2000/svg">
<path d="M56.3889 41.4545H1.94444C1.42875 41.4545 0.934169 41.1481 0.569514 40.6025C0.20486 40.0569 0 39.317 0 38.5455C0 37.7739 0.20486 37.034 0.569514 36.4884C0.934169 35.9429 1.42875 35.6364 1.94444 35.6364H56.3889C56.9046 35.6364 57.3992 35.9429 57.7638 36.4884C58.1285 37.034 58.3333 37.7739 58.3333 38.5455C58.3333 39.317 58.1285 40.0569 57.7638 40.6025C57.3992 41.1481 56.9046 41.4545 56.3889 41.4545Z" fill="white"/>
<path d="M56.3889 23.6364H1.94444C1.42875 23.6364 0.934169 23.3299 0.569514 22.7843C0.20486 22.2388 0 21.4988 0 20.7273C0 19.9557 0.20486 19.2158 0.569514 18.6702C0.934169 18.1247 1.42875 17.8182 1.94444 17.8182H56.3889C56.9046 17.8182 57.3992 18.1247 57.7638 18.6702C58.1285 19.2158 58.3333 19.9557 58.3333 20.7273C58.3333 21.4988 58.1285 22.2388 57.7638 22.7843C57.3992 23.3299 56.9046 23.6364 56.3889 23.6364Z" fill="white"/>
<path d="M56.3889 5.81818H1.94444C1.42875 5.81818 0.934169 5.51169 0.569514 4.96613C0.20486 4.42057 0 3.68063 0 2.90909C0 2.13755 0.20486 1.39761 0.569514 0.852054C0.934169 0.306493 1.42875 0 1.94444 0H56.3889C56.9046 0 57.3992 0.306493 57.7638 0.852054C58.1285 1.39761 58.3333 2.13755 58.3333 2.90909C58.3333 3.68063 58.1285 4.42057 57.7638 4.96613C57.3992 5.51169 56.9046 5.81818 56.3889 5.81818Z" fill="white"/>
</svg>
